<?xml version="1.0" encoding="UTF-8"?>
<svg id="Layer_2" data-name="Layer 2" xmlns="http://www.w3.org/2000/svg" viewBox="0 0 294.5 116.71">
  <defs>
    <style>
      .cls-1 {
        fill: #fff;
      }

      .cls-2 {
        fill: #DE703D;
      }
    </style>
  </defs>
  <g id="Layer_1-2" data-name="Layer 1">
    <g>
      <g id="Group_3407" data-name="Group 3407">
        <g id="Group_3405" data-name="Group 3405">
          <g id="Text">
            <path class="cls-2" d="m264.04,48.3L294.15.11h-19.99c-1.43,2.38-3.09,5-4.88,7.73-1.79,2.86-3.45,5.59-5.23,8.45-1.78,2.85-3.45,5.59-5.1,8.33s-3.33,5.23-4.76,7.5L234.31,0h-20.23c4.88,7.85,9.87,15.83,15.11,24.04,5.24,8.21,10.23,16.18,15.01,23.92l-30.25,48.52h19.87l20.47-32.37,20.47,32.37h19.75l-30.46-48.18Z"/>
            <path class="cls-2" d="m124.11,38.53c-14.46-9.83-34.14-6.07-43.97,8.38-9.83,14.46-6.07,34.14,8.38,43.97,10.74,7.3,24.85,7.3,35.59,0v3.93h13.92V14.73h-13.92v23.8Zm-17.85,42.36c-8.94,0-16.18-7.25-16.18-16.18,0-8.94,7.25-16.18,16.18-16.18s16.18,7.25,16.18,16.18h0c0,8.94-7.24,16.18-16.18,16.19h0Z"/>
            <path class="cls-2" d="m53.42,35.91h0v24.51h0c-.55,10.47-9.48,18.51-19.94,17.96-9.38-.49-16.99-7.77-17.9-17.12h-.12v-25.35H0v25.35h0c.97,18.99,17.16,33.6,36.15,32.63,17.63-.9,31.73-15,32.63-32.63h0v-25.35h-15.35Z"/>
            <path class="cls-2" d="m198,37.1h0v24.51h0c-.55,10.47-9.48,18.51-19.95,17.96-9.38-.49-16.99-7.77-17.9-17.13h-.12v-25.34h-15.46v25.35h0c.97,18.99,17.16,33.6,36.15,32.63,17.63-.9,31.73-15,32.63-32.63h0v-25.35h-15.35Z"/>
          </g>
        </g>
      </g>
      <g>
        <path class="cls-1" d="m44.95,95.43h3.42v18.38h10.42v2.58h-13.84v-20.96Z"/>
        <path class="cls-1" d="m61.44,95.43h3.42v20.96h-3.42v-20.96Z"/>
        <path class="cls-1" d="m67.19,95.43h3.64l5.85,20.34h.93l5.85-20.34h3.64l-6.47,20.96h-7l-6.44-20.96Z"/>
        <path class="cls-1" d="m89.43,95.43h15.55v2.39h-12.13v6.5h9.95v2.27h-9.95v7.4h12.44v2.39h-15.86v-20.96Z"/>
        <path class="cls-1" d="m106.85,110.58l2.64-1.49c1.49,2.92,3.58,5.22,7.59,5.22,3.55,0,5.78-1.71,5.78-3.42,0-4.48-15.27-3.7-15.27-10.11,0-2.43,2.11-5.66,8.58-5.66,5.29,0,8.05,2.46,9.45,5.63l-2.52,1.12c-1.12-2.43-3.39-4.35-7.12-4.35-3.2,0-5.07,1.59-5.07,3.08,0,4.32,15.27,2.92,15.27,10.05,0,3.7-3.86,6.06-9.27,6.06s-8.09-2.3-10.08-6.13Z"/>
        <path class="cls-1" d="m133.35,97.83h-6.25v-2.39h15.92v2.39h-6.25v18.57h-3.42v-18.57Z"/>
        <path class="cls-1" d="m145.82,95.43h7.09c6.28,0,8.99,2.3,8.99,5.54s-2.71,5.63-7.22,5.63v.31c4.35,0,6.53,3.33,8.02,9.49h-3.67c-1.15-5.69-1.96-8.55-6.25-8.55h-3.54v8.55h-3.42v-20.96Zm6.44,10.32c4.51,0,6.28-1.68,6.28-4.2s-1.77-3.73-6.28-3.73h-3.02v7.93h3.02Z"/>
        <path class="cls-1" d="m165.88,95.43h15.55v2.39h-12.13v6.5h9.95v2.27h-9.95v7.4h12.44v2.39h-15.86v-20.96Z"/>
        <path class="cls-1" d="m189.03,95.43h7.06l5.82,20.96h-3.42l-1.59-6.06h-8.61l-1.62,6.06h-3.45l5.82-20.96Zm7.25,12.63l-3.17-12h-1.06l-3.17,12h7.4Z"/>
        <path class="cls-1" d="m204.24,95.43h7.03l4.23,20.12h.56l4.23-20.12h7.03v20.96h-3.27v-20h-.72l-4.48,20h-6.16l-4.48-20h-.72v20h-3.27v-20.96Z"/>
        <path class="cls-1" d="m230.21,110.58l2.64-1.49c1.49,2.92,3.58,5.22,7.59,5.22,3.55,0,5.79-1.71,5.79-3.42,0-4.48-15.27-3.7-15.27-10.11,0-2.43,2.11-5.66,8.58-5.66,5.29,0,8.05,2.46,9.45,5.63l-2.52,1.12c-1.12-2.43-3.39-4.35-7.12-4.35-3.2,0-5.07,1.59-5.07,3.08,0,4.32,15.27,2.92,15.27,10.05,0,3.7-3.86,6.06-9.27,6.06s-8.09-2.3-10.08-6.13Z"/>
      </g>
    </g>
  </g>
</svg>