<svg xmlns="http://www.w3.org/2000/svg" width="23" height="19" viewBox="0 0 23 19"><g><g><g><path fill="#fdc401" d="M22.481 4.773L16.904 6.76l.332.664c.473.947.018 2.115-1.206 2.455-.015.005-1.71.46-2.225-1.081l-.496-1.49 1.412-1.412L11.238.672 7.755 5.896l1.411 1.412-.496 1.49c-.32.962-1.01 1.286-2.23 1.054-.134-.065-.83-.096-1.224-.953a1.696 1.696 0 0 1 .023-1.475l.332-.663L0 4.772l2.485 9.604H8.33l2.908-2.908 2.908 2.908h5.846z"/></g><g transform="rotate(-45 11 15)"><path fill="#fdc401" d="M10.03 13.83h2.41v2.409h-2.41z"/></g><g><path fill="#fdc401" d="M8.33 15.694H2.674v2.635h8.291z"/></g><g><path fill="#fdc401" d="M19.802 15.694h-5.656l-2.635 2.635h8.291z"/></g></g></g></svg>