<svg xmlns="http://www.w3.org/2000/svg" width="237.707" height="39.416" viewBox="0 0 237.707 39.416">
  <g id="Group_10845" data-name="Group 10845" transform="translate(-1568.254 -3112.582)">
    <g id="africa-2" transform="translate(1568.254 3112.582)">
      <path id="Path_4474" data-name="Path 4474" d="M31.4,23.9l-.535-2.675,1.5-1a.587.587,0,0,0,.094-.077L34.309,18.3a.616.616,0,0,0,.077-.777l-1.033-1.551.456-.912a.618.618,0,0,0,.033-.471l-.616-1.848a.616.616,0,0,0-.733-.4l-1.91.477-.436-1.307a.616.616,0,0,0-.584-.421H27.97l-.782-.783.5-1.486a.616.616,0,0,0-.148-.63l-.962-.963.5-1.486a.616.616,0,0,0-.309-.746l-1.232-.616A.615.615,0,0,0,25.1,4.33l-2.315.578L20.474,4.33a.615.615,0,0,0-.584.162l-.963.962L17.862,5.1V3.7a.617.617,0,0,0-.341-.551L15.147,1.957,13.369.18A.614.614,0,0,0,12.934,0H10.47a.618.618,0,0,0-.228.044L7.162,1.276a.616.616,0,0,0-.284.23l-1.2,1.8L4.492,4.492a.614.614,0,0,0-.148.241L3.808,6.338l-1,.5a.621.621,0,0,0-.237.209l-1.2,1.8L.181,10.035a.615.615,0,0,0-.148.63l1.15,3.453-.5,1a.618.618,0,0,0-.033.471l.616,1.848a.616.616,0,0,0,.309.356l2.464,1.232a.618.618,0,0,0,.617-.038l1.692-1.128H8.437l1.692,1.128a.617.617,0,0,0,.463.091l2.039-.408-.28.841a.612.612,0,0,0,0,.39l.616,1.848a.613.613,0,0,0,.435.4l2.105.526.471,1.885-1.13,2.26a.616.616,0,0,0,0,.551l1.232,2.464a.633.633,0,0,0,.038.066L17.246,31.6v2.277a.617.617,0,0,0,.032.195l1.232,3.7a.614.614,0,0,0,.243.318L20.6,39.313a.614.614,0,0,0,.342.1.605.605,0,0,0,.195-.032l1.848-.616a.623.623,0,0,0,.241-.148l1.189-1.189,1.8-1.2a.625.625,0,0,0,.171-.171l1.232-1.848a.615.615,0,0,0,.071-.536L27.126,32l.5-2.015,2.21-1.1a.617.617,0,0,0,.341-.551v-1.7l1.167-2.334a.613.613,0,0,0,.053-.4Zm-1.561-3.471a.617.617,0,0,0-.262.633l.575,2.872-1.138,2.274a.619.619,0,0,0-.065.275v1.467l-2.123,1.062a.615.615,0,0,0-.321.4l-.616,2.464a.612.612,0,0,0,.013.344l.52,1.562-1,1.495-1.745,1.163a.587.587,0,0,0-.094.077l-1.129,1.129-1.424.475-1.421-.947-1.133-3.4V31.41a.619.619,0,0,0-.1-.342l-1.211-1.816L16.087,27.1l1.094-2.188a.614.614,0,0,0,.046-.424l-.616-2.464a.615.615,0,0,0-.448-.448l-2.135-.534-.445-1.332.551-1.653a.615.615,0,0,0-.7-.8l-2.829.566L8.964,16.732a.618.618,0,0,0-.342-.1H6.159a.619.619,0,0,0-.342.1L4.266,17.765l-1.915-.958L1.9,15.444l.5-1a.618.618,0,0,0,.033-.471L1.321,10.636l.962-.963a.616.616,0,0,0,.077-.094L3.5,7.868l1.086-.543A.616.616,0,0,0,4.9,6.969l.57-1.71L6.595,4.131a.616.616,0,0,0,.077-.094L7.8,2.349l2.791-1.117h2.09L14.346,2.9a.618.618,0,0,0,.16.116l2.123,1.062V5.544a.615.615,0,0,0,.421.584l1.848.616a.614.614,0,0,0,.63-.148l.985-.985,2.125.531a.6.6,0,0,0,.3,0l2.243-.56.551.275L25.284,7.2a.616.616,0,0,0,.148.63l.962.963-.5,1.486a.616.616,0,0,0,.148.63l1.232,1.232a.614.614,0,0,0,.435.18h1.4l.475,1.426a.616.616,0,0,0,.733.4l1.911-.477.355,1.065-.5,1a.617.617,0,0,0,.038.617l.952,1.428L31.633,19.23l-1.8,1.2Z" transform="translate(0 0)" fill="#909090"/>
      <path id="Path_4475" data-name="Path 4475" d="M58.032,48.951l.559-1.678a.612.612,0,0,0,0-.39l-.616-1.848a.612.612,0,0,0-.389-.389l-1.848-.616a.616.616,0,0,0-.746.309l-.616,1.232a.619.619,0,0,0-.065.275v1.593L53.26,48.491a.614.614,0,0,0-.18.435V49.9l-1.051,1.051a.614.614,0,0,0-.18.435v.9l-1.574,1.049a.616.616,0,0,0-.209.788l.616,1.232a.616.616,0,0,0,.356.309l1.848.616a.608.608,0,0,0,.195.032.615.615,0,0,0,.275-.065l2.464-1.232a.617.617,0,0,0,.275-.275l.572-1.142,1.777-1.777a.614.614,0,0,0,.162-.584l-.572-2.29Zm-1.239.124.531,2.125-1.6,1.6a.618.618,0,0,0-.116.16l-.524,1.048-2.052,1.025-1.364-.454-.259-.517,1.4-.931a.617.617,0,0,0,.274-.512v-.977l1.051-1.051a.614.614,0,0,0,.18-.435v-.977l1.051-1.051a.614.614,0,0,0,.18-.435v-1.7l.312-.625,1.048.35.454,1.36L56.8,48.731a.607.607,0,0,0-.013.344Z" transform="translate(-19.205 -16.901)" fill="#909090"/>
    </g>
    <g id="earth-2" transform="translate(1634.767 3115.219)">
      <path id="Path_4476" data-name="Path 4476" d="M22.151,40.341a17.071,17.071,0,1,1,17.069-17.07A17.071,17.071,0,0,1,22.151,40.341Zm0-33.029a15.962,15.962,0,1,0,15.961,15.96A15.963,15.963,0,0,0,22.151,7.312Z" transform="translate(-3.369 -6.199)" fill="#909090"/>
      <path id="Path_4477" data-name="Path 4477" d="M7.851,35.56a10.064,10.064,0,0,1-3.079-.415,3.977,3.977,0,0,1-2.482-1.94c-.829-1.668.2-4.468,1.593-6.5a.554.554,0,1,1,.915.625c-1.386,2.025-2.035,4.34-1.516,5.384a2.921,2.921,0,0,0,1.833,1.38c3.8,1.238,11.554-.644,19.293-4.679C35.233,23.768,40.924,16.8,39.45,13.827c-.585-1.177-2.439-1.81-5.1-1.747a.554.554,0,1,1-.027-1.108c3.148-.076,5.321.76,6.115,2.362,1.985,3.994-4.834,11.488-15.523,17.063C18.624,33.678,12.255,35.56,7.851,35.56Z" transform="translate(-1.993 -8.324)" fill="#909090"/>
      <path id="Path_4478" data-name="Path 4478" d="M61.627,12.86a.554.554,0,0,1-.43-.2l-1.715-2.1a.554.554,0,0,1,.1-.8l2.233-1.646a.555.555,0,0,1,.658.893l-1.762,1.3,1.346,1.649a.554.554,0,0,1-.429.905Z" transform="translate(-27.563 -7.004)" fill="#909090"/>
      <path id="Path_4479" data-name="Path 4479" d="M22.891,35a2.8,2.8,0,0,1-1.087-.214,5.374,5.374,0,0,1-2.473-2.71l-.033-.065c-.3-.592-.606-1.2-1.1-1.381a2.332,2.332,0,0,0-.53-.1,4.4,4.4,0,0,1-.541-.084,4.125,4.125,0,0,1-2.53-2.312l-.206-.388a5.275,5.275,0,0,0-1.389-1.913,1.663,1.663,0,0,0-1.306-.259.788.788,0,0,0-.551.4c-.222.447.019,1.018.3,1.68a3.4,3.4,0,0,1,.363,2.452c-.436,1.243-1.947,1.669-3.215,1.445h0a.6.6,0,0,1-.322-.166.554.554,0,0,1,.549-.916c.781.126,1.714-.082,1.94-.724a2.563,2.563,0,0,0-.339-1.659,3.054,3.054,0,0,1-.268-2.6,1.9,1.9,0,0,1,1.275-.99,2.761,2.761,0,0,1,2.221.436,6.164,6.164,0,0,1,1.725,2.292l.2.373c.571,1.039,1.164,1.617,1.809,1.764a3.472,3.472,0,0,0,.412.062,3.25,3.25,0,0,1,.79.158,3.45,3.45,0,0,1,1.706,1.924l.032.065a4.406,4.406,0,0,0,1.917,2.189,1.784,1.784,0,0,0,1.433-.05,1.02,1.02,0,0,0,.565-.649,2.657,2.657,0,0,0-.574-1.774c-.111-.2-.224-.388-.324-.584a6.121,6.121,0,0,1,1.51-7.321c.1-.078.2-.154.294-.23a2.975,2.975,0,0,0,.717-.677,2.913,2.913,0,0,0,.283-1.4,7.311,7.311,0,0,1,.093-.992,6.928,6.928,0,0,1,.463-1.394,5.125,5.125,0,0,0,.418-1.324,1.392,1.392,0,0,0-.452-1.136.412.412,0,0,0-.422-.1,1.529,1.529,0,0,0-.581.57,2.822,2.822,0,0,1-.9.874,2.788,2.788,0,0,1-.952.265q-2.067.284-4.132.576c-1.7.238-2.8-.115-3.261-1.05a2.952,2.952,0,0,1-.19-1.52c.04-.554.145-2.025,1.3-2.46a2.7,2.7,0,0,1,2.433.693l.122.084c.752.522,2.123.938,2.681.178.048-.067.091-.147.136-.226a2.348,2.348,0,0,1,.4-.564A2.443,2.443,0,0,1,24.789,13c.08-.009.16-.019.239-.03A3.171,3.171,0,0,0,27.4,11.645a4.407,4.407,0,0,0,.074-3.615.554.554,0,1,1,1.053-.34,5.531,5.531,0,0,1-.186,4.539,4.221,4.221,0,0,1-3.151,1.838c-.091.013-.18.024-.269.034a1.582,1.582,0,0,0-.85.246,1.5,1.5,0,0,0-.2.309,3.641,3.641,0,0,1-.2.333c-.951,1.294-2.876,1.007-4.209.084l-.124-.085c-.5-.349-1.021-.708-1.414-.565-.326.124-.518.614-.58,1.5a2.064,2.064,0,0,0,.079.954c.283.569,1.306.554,2.112.443,1.375-.194,2.756-.388,4.131-.577a1.834,1.834,0,0,0,.584-.145,1.957,1.957,0,0,0,.535-.561,2.38,2.38,0,0,1,1.112-.955,1.514,1.514,0,0,1,1.474.291,2.5,2.5,0,0,1,.856,2.127,5.993,5.993,0,0,1-.495,1.62,6.041,6.041,0,0,0-.4,1.172,6.421,6.421,0,0,0-.075.842,3.821,3.821,0,0,1-.457,1.948,3.9,3.9,0,0,1-.976.96c-.09.069-.179.137-.265.208A4.977,4.977,0,0,0,24.323,30.2c.093.181.2.36.3.539a3.5,3.5,0,0,1,.689,2.593,2.106,2.106,0,0,1-1.147,1.374A2.872,2.872,0,0,1,22.891,35Z" transform="translate(-4.724 -6.679)" fill="#909090"/>
      <path id="Path_4480" data-name="Path 4480" d="M55.493,38.421a.554.554,0,0,1-.3-.088,2.544,2.544,0,0,1-1.056-3.224,3.635,3.635,0,0,1,.726-.9c.115-.114.23-.227.333-.349.166-.2.183-.317.178-.338a.56.56,0,0,0-.554,0,2.494,2.494,0,0,1-3.151-1.139,2.212,2.212,0,0,1,.055-1.9,2.038,2.038,0,0,1,1.38-1.125,3.47,3.47,0,0,1,.848-.055,1.709,1.709,0,0,0,.707-.073,1.084,1.084,0,0,0,.463-.922,1.57,1.57,0,0,0-.5-1.389,5.863,5.863,0,0,0-1.04-.721c-.206-.122-.416-.247-.622-.384-.111-.073-.206-.131-.29-.182-.713-.431-.911-.755-.765-1.945a4.594,4.594,0,0,1,.839-2c.072-.111.146-.229.222-.349a8.311,8.311,0,0,0,1.108-4.877c0-.246.007-.5.014-.759a.546.546,0,0,1,.568-.54.554.554,0,0,1,.54.568c-.006.257-.01.505-.013.748a9.421,9.421,0,0,1-1.27,5.441c-.076.126-.154.247-.23.367a3.547,3.547,0,0,0-.673,1.534,1.7,1.7,0,0,0-.02.688,1.629,1.629,0,0,0,.258.173c.1.058.206.125.329.206.189.125.385.241.577.355a6.767,6.767,0,0,1,1.233.864,2.689,2.689,0,0,1,.852,2.262,2.089,2.089,0,0,1-1.1,1.864,2.605,2.605,0,0,1-1.194.175,2.625,2.625,0,0,0-.59.029.942.942,0,0,0-.621.533,1.111,1.111,0,0,0-.044.942,1.386,1.386,0,0,0,1.713.591,1.572,1.572,0,0,1,1.881.367,1.308,1.308,0,0,1-.224,1.708c-.124.147-.261.284-.4.421a2.721,2.721,0,0,0-.523.627,1.477,1.477,0,0,0,.67,1.78.554.554,0,0,1-.3,1.021Z" transform="translate(-24.053 -10.193)" fill="#909090"/>
      <path id="Path_4481" data-name="Path 4481" d="M34.326,62.978a.554.554,0,0,1-.545-.459,2.3,2.3,0,0,0-.3-.8,3.6,3.6,0,0,0-1.562-1.338,2.426,2.426,0,0,0-1.256-.3,3.788,3.788,0,0,0-1.676.838,3.555,3.555,0,0,1-2.728.955,3.6,3.6,0,0,1-.921-.355l-2.133-1.053a1.028,1.028,0,0,0-.883-.072,1.6,1.6,0,0,0-.8,1.013.554.554,0,1,1-1.053-.337,2.67,2.67,0,0,1,1.421-1.7,2.117,2.117,0,0,1,1.808.1l2.14,1.059a2.664,2.664,0,0,0,.64.258c.606.122,1.193-.294,1.87-.776a4.711,4.711,0,0,1,2.214-1.037,3.47,3.47,0,0,1,1.844.408,4.687,4.687,0,0,1,2.022,1.763,3.42,3.42,0,0,1,.443,1.181.554.554,0,0,1-.451.642.627.627,0,0,1-.1.006Z" transform="translate(-10.212 -29.723)" fill="#909090"/>
    </g>
    <g id="layer1" transform="translate(1615.673 3129.262)">
      <path id="path9413" d="M.784,295.765H9.627L7.97,297.422a.5.5,0,0,0,.714.714l1.509-1.511,1.007-1.009a.5.5,0,0,0,0-.71l-2.516-2.519a.5.5,0,1,0-.714.714l1.661,1.657H.758a.5.5,0,1,0,.026,1.008Z" transform="translate(-0.257 -292.235)" fill="#909090"/>
    </g>
    <g id="layer1-2" data-name="layer1" transform="translate(1681.563 3129.262)">
      <path id="path9413-2" data-name="path9413" d="M.784,295.765H9.627L7.97,297.422a.5.5,0,0,0,.714.714l1.509-1.511,1.007-1.009a.5.5,0,0,0,0-.71l-2.516-2.519a.5.5,0,1,0-.714.714l1.661,1.657H.758a.5.5,0,1,0,.026,1.008Z" transform="translate(-0.257 -292.235)" fill="#909090"/>
    </g>
    <g id="africa-2-2" data-name="africa-2" transform="translate(1700.655 3112.582)">
      <path id="Path_4474-2" data-name="Path 4474" d="M31.4,23.9l-.535-2.675,1.5-1a.587.587,0,0,0,.094-.077L34.309,18.3a.616.616,0,0,0,.077-.777l-1.033-1.551.456-.912a.618.618,0,0,0,.033-.471l-.616-1.848a.616.616,0,0,0-.733-.4l-1.91.477-.436-1.307a.616.616,0,0,0-.584-.421H27.97l-.782-.783.5-1.486a.616.616,0,0,0-.148-.63l-.962-.963.5-1.486a.616.616,0,0,0-.309-.746l-1.232-.616A.615.615,0,0,0,25.1,4.33l-2.315.578L20.474,4.33a.615.615,0,0,0-.584.162l-.963.962L17.862,5.1V3.7a.617.617,0,0,0-.341-.551L15.147,1.957,13.369.18A.614.614,0,0,0,12.934,0H10.47a.618.618,0,0,0-.228.044L7.162,1.276a.616.616,0,0,0-.284.23l-1.2,1.8L4.492,4.492a.614.614,0,0,0-.148.241L3.808,6.338l-1,.5a.621.621,0,0,0-.237.209l-1.2,1.8L.181,10.035a.615.615,0,0,0-.148.63l1.15,3.453-.5,1a.618.618,0,0,0-.033.471l.616,1.848a.616.616,0,0,0,.309.356l2.464,1.232a.618.618,0,0,0,.617-.038l1.692-1.128H8.437l1.692,1.128a.617.617,0,0,0,.463.091l2.039-.408-.28.841a.612.612,0,0,0,0,.39l.616,1.848a.613.613,0,0,0,.435.4l2.105.526.471,1.885-1.13,2.26a.616.616,0,0,0,0,.551l1.232,2.464a.633.633,0,0,0,.038.066L17.246,31.6v2.277a.617.617,0,0,0,.032.195l1.232,3.7a.614.614,0,0,0,.243.318L20.6,39.313a.614.614,0,0,0,.342.1.605.605,0,0,0,.195-.032l1.848-.616a.623.623,0,0,0,.241-.148l1.189-1.189,1.8-1.2a.625.625,0,0,0,.171-.171l1.232-1.848a.615.615,0,0,0,.071-.536L27.126,32l.5-2.015,2.21-1.1a.617.617,0,0,0,.341-.551v-1.7l1.167-2.334a.613.613,0,0,0,.053-.4Zm-1.561-3.471a.617.617,0,0,0-.262.633l.575,2.872-1.138,2.274a.619.619,0,0,0-.065.275v1.467l-2.123,1.062a.615.615,0,0,0-.321.4l-.616,2.464a.612.612,0,0,0,.013.344l.52,1.562-1,1.495-1.745,1.163a.587.587,0,0,0-.094.077l-1.129,1.129-1.424.475-1.421-.947-1.133-3.4V31.41a.619.619,0,0,0-.1-.342l-1.211-1.816L16.087,27.1l1.094-2.188a.614.614,0,0,0,.046-.424l-.616-2.464a.615.615,0,0,0-.448-.448l-2.135-.534-.445-1.332.551-1.653a.615.615,0,0,0-.7-.8l-2.829.566L8.964,16.732a.618.618,0,0,0-.342-.1H6.159a.619.619,0,0,0-.342.1L4.266,17.765l-1.915-.958L1.9,15.444l.5-1a.618.618,0,0,0,.033-.471L1.321,10.636l.962-.963a.616.616,0,0,0,.077-.094L3.5,7.868l1.086-.543A.616.616,0,0,0,4.9,6.969l.57-1.71L6.595,4.131a.616.616,0,0,0,.077-.094L7.8,2.349l2.791-1.117h2.09L14.346,2.9a.618.618,0,0,0,.16.116l2.123,1.062V5.544a.615.615,0,0,0,.421.584l1.848.616a.614.614,0,0,0,.63-.148l.985-.985,2.125.531a.6.6,0,0,0,.3,0l2.243-.56.551.275L25.284,7.2a.616.616,0,0,0,.148.63l.962.963-.5,1.486a.616.616,0,0,0,.148.63l1.232,1.232a.614.614,0,0,0,.435.18h1.4l.475,1.426a.616.616,0,0,0,.733.4l1.911-.477.355,1.065-.5,1a.617.617,0,0,0,.038.617l.952,1.428L31.633,19.23l-1.8,1.2Z" transform="translate(0 0)" fill="#909090"/>
      <path id="Path_4475-2" data-name="Path 4475" d="M58.032,48.951l.559-1.678a.612.612,0,0,0,0-.39l-.616-1.848a.612.612,0,0,0-.389-.389l-1.848-.616a.616.616,0,0,0-.746.309l-.616,1.232a.619.619,0,0,0-.065.275v1.593L53.26,48.491a.614.614,0,0,0-.18.435V49.9l-1.051,1.051a.614.614,0,0,0-.18.435v.9l-1.574,1.049a.616.616,0,0,0-.209.788l.616,1.232a.616.616,0,0,0,.356.309l1.848.616a.608.608,0,0,0,.195.032.615.615,0,0,0,.275-.065l2.464-1.232a.617.617,0,0,0,.275-.275l.572-1.142,1.777-1.777a.614.614,0,0,0,.162-.584l-.572-2.29Zm-1.239.124.531,2.125-1.6,1.6a.618.618,0,0,0-.116.16l-.524,1.048-2.052,1.025-1.364-.454-.259-.517,1.4-.931a.617.617,0,0,0,.274-.512v-.977l1.051-1.051a.614.614,0,0,0,.18-.435v-.977l1.051-1.051a.614.614,0,0,0,.18-.435v-1.7l.312-.625,1.048.35.454,1.36L56.8,48.731a.607.607,0,0,0-.013.344Z" transform="translate(-19.205 -16.901)" fill="#909090"/>
    </g>
    <g id="earth-2-2" data-name="earth-2" transform="translate(1767.168 3115.219)">
      <path id="Path_4476-2" data-name="Path 4476" d="M22.151,40.341a17.071,17.071,0,1,1,17.069-17.07A17.071,17.071,0,0,1,22.151,40.341Zm0-33.029a15.962,15.962,0,1,0,15.961,15.96A15.963,15.963,0,0,0,22.151,7.312Z" transform="translate(-3.368 -6.199)" fill="#909090"/>
      <path id="Path_4477-2" data-name="Path 4477" d="M7.851,35.56a10.064,10.064,0,0,1-3.079-.415,3.977,3.977,0,0,1-2.482-1.94c-.829-1.668.2-4.468,1.593-6.5a.554.554,0,1,1,.915.625c-1.386,2.025-2.035,4.34-1.516,5.384a2.921,2.921,0,0,0,1.833,1.38c3.8,1.238,11.554-.644,19.293-4.679C35.233,23.768,40.924,16.8,39.45,13.827c-.585-1.177-2.439-1.81-5.1-1.747a.554.554,0,1,1-.027-1.108c3.148-.076,5.321.76,6.115,2.362,1.985,3.994-4.834,11.488-15.523,17.063C18.624,33.678,12.255,35.56,7.851,35.56Z" transform="translate(-1.993 -8.324)" fill="#909090"/>
      <path id="Path_4478-2" data-name="Path 4478" d="M61.627,12.86a.554.554,0,0,1-.43-.2l-1.715-2.1a.554.554,0,0,1,.1-.8l2.233-1.646a.555.555,0,0,1,.658.893l-1.762,1.3,1.346,1.649a.554.554,0,0,1-.429.905Z" transform="translate(-27.563 -7.004)" fill="#909090"/>
      <path id="Path_4479-2" data-name="Path 4479" d="M22.891,35a2.8,2.8,0,0,1-1.087-.214,5.374,5.374,0,0,1-2.473-2.71l-.033-.065c-.3-.592-.606-1.2-1.1-1.381a2.332,2.332,0,0,0-.53-.1,4.4,4.4,0,0,1-.541-.084,4.125,4.125,0,0,1-2.53-2.312l-.206-.388a5.275,5.275,0,0,0-1.389-1.913,1.663,1.663,0,0,0-1.306-.259.788.788,0,0,0-.551.4c-.222.447.019,1.018.3,1.68a3.4,3.4,0,0,1,.363,2.452c-.436,1.243-1.947,1.669-3.215,1.445h0a.6.6,0,0,1-.322-.166.554.554,0,0,1,.549-.916c.781.126,1.714-.082,1.94-.724a2.563,2.563,0,0,0-.339-1.659,3.054,3.054,0,0,1-.268-2.6,1.9,1.9,0,0,1,1.275-.99,2.761,2.761,0,0,1,2.221.436,6.164,6.164,0,0,1,1.725,2.292l.2.373c.571,1.039,1.164,1.617,1.809,1.764a3.472,3.472,0,0,0,.412.062,3.25,3.25,0,0,1,.79.158,3.45,3.45,0,0,1,1.706,1.924l.032.065a4.406,4.406,0,0,0,1.917,2.189,1.784,1.784,0,0,0,1.433-.05,1.02,1.02,0,0,0,.565-.649,2.657,2.657,0,0,0-.574-1.774c-.111-.2-.224-.388-.324-.584a6.121,6.121,0,0,1,1.51-7.321c.1-.078.2-.154.294-.23a2.975,2.975,0,0,0,.717-.677,2.913,2.913,0,0,0,.283-1.4,7.311,7.311,0,0,1,.093-.992,6.928,6.928,0,0,1,.463-1.394,5.125,5.125,0,0,0,.418-1.324,1.392,1.392,0,0,0-.452-1.136.412.412,0,0,0-.422-.1,1.529,1.529,0,0,0-.581.57,2.822,2.822,0,0,1-.9.874,2.788,2.788,0,0,1-.952.265q-2.067.284-4.132.576c-1.7.238-2.8-.115-3.261-1.05a2.952,2.952,0,0,1-.19-1.52c.04-.554.145-2.025,1.3-2.46a2.7,2.7,0,0,1,2.433.693l.122.084c.752.522,2.123.938,2.681.178.048-.067.091-.147.136-.226a2.348,2.348,0,0,1,.4-.564A2.443,2.443,0,0,1,24.789,13c.08-.009.16-.019.239-.03A3.171,3.171,0,0,0,27.4,11.645a4.407,4.407,0,0,0,.074-3.615.554.554,0,1,1,1.053-.34,5.531,5.531,0,0,1-.186,4.539,4.221,4.221,0,0,1-3.151,1.838c-.091.013-.18.024-.269.034a1.582,1.582,0,0,0-.85.246,1.5,1.5,0,0,0-.2.309,3.641,3.641,0,0,1-.2.333c-.951,1.294-2.876,1.007-4.209.084l-.124-.085c-.5-.349-1.021-.708-1.414-.565-.326.124-.518.614-.58,1.5a2.064,2.064,0,0,0,.079.954c.283.569,1.306.554,2.112.443,1.375-.194,2.756-.388,4.131-.577a1.834,1.834,0,0,0,.584-.145,1.957,1.957,0,0,0,.535-.561,2.38,2.38,0,0,1,1.112-.955,1.514,1.514,0,0,1,1.474.291,2.5,2.5,0,0,1,.856,2.127,5.993,5.993,0,0,1-.495,1.62,6.041,6.041,0,0,0-.4,1.172,6.421,6.421,0,0,0-.075.842,3.821,3.821,0,0,1-.457,1.948,3.9,3.9,0,0,1-.976.96c-.09.069-.179.137-.265.208A4.977,4.977,0,0,0,24.323,30.2c.093.181.2.36.3.539a3.5,3.5,0,0,1,.689,2.593,2.106,2.106,0,0,1-1.147,1.374A2.872,2.872,0,0,1,22.891,35Z" transform="translate(-4.723 -6.679)" fill="#909090"/>
      <path id="Path_4480-2" data-name="Path 4480" d="M55.493,38.421a.554.554,0,0,1-.3-.088,2.544,2.544,0,0,1-1.056-3.224,3.635,3.635,0,0,1,.726-.9c.115-.114.23-.227.333-.349.166-.2.183-.317.178-.338a.56.56,0,0,0-.554,0,2.494,2.494,0,0,1-3.151-1.139,2.212,2.212,0,0,1,.055-1.9,2.038,2.038,0,0,1,1.38-1.125,3.47,3.47,0,0,1,.848-.055,1.709,1.709,0,0,0,.707-.073,1.084,1.084,0,0,0,.463-.922,1.57,1.57,0,0,0-.5-1.389,5.863,5.863,0,0,0-1.04-.721c-.206-.122-.416-.247-.622-.384-.111-.073-.206-.131-.29-.182-.713-.431-.911-.755-.765-1.945a4.594,4.594,0,0,1,.839-2c.072-.111.146-.229.222-.349a8.311,8.311,0,0,0,1.108-4.877c0-.246.007-.5.014-.759a.546.546,0,0,1,.568-.54.554.554,0,0,1,.54.568c-.006.257-.01.505-.013.748a9.421,9.421,0,0,1-1.27,5.441c-.076.126-.154.247-.23.367a3.547,3.547,0,0,0-.673,1.534,1.7,1.7,0,0,0-.02.688,1.629,1.629,0,0,0,.258.173c.1.058.206.125.329.206.189.125.385.241.577.355a6.767,6.767,0,0,1,1.233.864,2.689,2.689,0,0,1,.852,2.262,2.089,2.089,0,0,1-1.1,1.864,2.605,2.605,0,0,1-1.194.175,2.625,2.625,0,0,0-.59.029.942.942,0,0,0-.621.533,1.111,1.111,0,0,0-.044.942,1.386,1.386,0,0,0,1.713.591,1.572,1.572,0,0,1,1.881.367,1.308,1.308,0,0,1-.224,1.708c-.124.147-.261.284-.4.421a2.721,2.721,0,0,0-.523.627,1.477,1.477,0,0,0,.67,1.78.554.554,0,0,1-.3,1.021Z" transform="translate(-24.053 -10.193)" fill="#909090"/>
      <path id="Path_4481-2" data-name="Path 4481" d="M34.326,62.978a.554.554,0,0,1-.545-.459,2.3,2.3,0,0,0-.3-.8,3.6,3.6,0,0,0-1.562-1.338,2.426,2.426,0,0,0-1.256-.3,3.788,3.788,0,0,0-1.676.838,3.555,3.555,0,0,1-2.728.955,3.6,3.6,0,0,1-.921-.355l-2.133-1.053a1.028,1.028,0,0,0-.883-.072,1.6,1.6,0,0,0-.8,1.013.554.554,0,1,1-1.053-.337,2.67,2.67,0,0,1,1.421-1.7,2.117,2.117,0,0,1,1.808.1l2.14,1.059a2.664,2.664,0,0,0,.64.258c.606.122,1.193-.294,1.87-.776a4.711,4.711,0,0,1,2.214-1.037,3.47,3.47,0,0,1,1.844.408,4.687,4.687,0,0,1,2.022,1.763,3.42,3.42,0,0,1,.443,1.181.554.554,0,0,1-.451.642.627.627,0,0,1-.1.006Z" transform="translate(-10.212 -29.723)" fill="#909090"/>
    </g>
    <g id="layer1-3" data-name="layer1" transform="translate(1748.075 3129.262)">
      <path id="path9413-3" data-name="path9413" d="M.784,295.765H9.627L7.97,297.422a.5.5,0,0,0,.714.714l1.509-1.511,1.007-1.009a.5.5,0,0,0,0-.71l-2.516-2.519a.5.5,0,1,0-.714.714l1.661,1.657H.758a.5.5,0,1,0,.026,1.008Z" transform="translate(-0.257 -292.235)" fill="#909090"/>
    </g>
  </g>
</svg>
