<svg id="g99" xmlns="http://www.w3.org/2000/svg" xmlns:xlink="http://www.w3.org/1999/xlink" width="64.048" height="64.047" viewBox="0 0 64.048 64.047">
  <defs>
    <clipPath id="clip-path">
      <path id="path105" d="M0-682.665H64.048v64.047H0Z" transform="translate(0 682.665)" fill="#8d8d8d"/>
    </clipPath>
  </defs>
  <g id="g101">
    <g id="g103" clip-path="url(#clip-path)">
      <g id="g109" transform="translate(4.144 44.004)">
        <path id="path111" d="M-538.569,0V15.353a3.753,3.753,0,0,1-3.753,3.753h-48.254a3.753,3.753,0,0,1-3.753-3.753v-5.22" transform="translate(594.329)" fill="none" stroke="#8d8d8d" stroke-linecap="round" stroke-linejoin="round" stroke-width="1.5"/>
      </g>
      <g id="g113" transform="translate(4.144 5.226)">
        <path id="path115" d="M-403.713-522.836h-38.039a3.759,3.759,0,0,1-3.759-3.759v-46.613a3.759,3.759,0,0,1,3.759-3.759h48.242a3.759,3.759,0,0,1,3.759,3.759v36.41a3.759,3.759,0,0,1-1.1,2.658l-10.2,10.2A3.76,3.76,0,0,1-403.713-522.836Z" transform="translate(445.511 576.966)" fill="none" stroke="#8d8d8d" stroke-linecap="round" stroke-linejoin="round" stroke-width="1.5"/>
      </g>
      <g id="g117" transform="translate(44.401 43.854)">
        <path id="path119" d="M0-149.734a3.08,3.08,0,0,0,3.08-3.08v-6.263a3.08,3.08,0,0,1,3.08-3.08h6.263a3.08,3.08,0,0,0,3.08-3.08" transform="translate(0 165.237)" fill="none" stroke="#8d8d8d" stroke-linecap="round" stroke-linejoin="round" stroke-width="1.5"/>
      </g>
      <g id="g121" transform="translate(4.144 18.633)">
        <path id="path123" d="M-107.139,0h-11.092" transform="translate(118.232 0)" fill="none" stroke="#8d8d8d" stroke-linecap="round" stroke-linejoin="round" stroke-width="1.5"/>
      </g>
      <g id="g125" transform="translate(18.989 18.633)">
        <path id="path127" d="M-395.183,0H-436.1" transform="translate(436.098 0)" fill="none" stroke="#8d8d8d" stroke-linecap="round" stroke-linejoin="round" stroke-width="1.5"/>
      </g>
      <g id="g129" transform="translate(12.852 0.938)">
        <path id="path131" d="M-18.494-95.611a1.915,1.915,0,0,1-1.915-1.915V-103.6a1.915,1.915,0,0,1,1.915-1.915h.431a1.915,1.915,0,0,1,1.915,1.915v2.373" transform="translate(20.409 105.51)" fill="none" stroke="#8d8d8d" stroke-linecap="round" stroke-linejoin="round" stroke-width="1.5"/>
      </g>
      <g id="g133" transform="translate(46.935 0.938)">
        <path id="path135" d="M-18.494-95.611a1.915,1.915,0,0,1-1.915-1.915V-103.6a1.915,1.915,0,0,1,1.915-1.915h.431a1.915,1.915,0,0,1,1.915,1.915v2.373" transform="translate(20.409 105.51)" fill="none" stroke="#8d8d8d" stroke-linecap="round" stroke-linejoin="round" stroke-width="1.5"/>
      </g>
      <g id="g137" transform="translate(9.773 24.262)">
        <path id="path139" d="M-51.781-60.412h-4.468a.894.894,0,0,1-.894-.894v-4.468a.894.894,0,0,1,.894-.894h4.468a.894.894,0,0,1,.894.894v4.468A.894.894,0,0,1-51.781-60.412Z" transform="translate(57.143 66.667)" fill="none" stroke="#8d8d8d" stroke-linecap="round" stroke-linejoin="round" stroke-width="1.5"/>
      </g>
      <g id="g141" transform="translate(22.522 24.262)">
        <path id="path143" d="M-51.781-60.412h-4.468a.894.894,0,0,1-.894-.894v-4.468a.894.894,0,0,1,.894-.894h4.468a.894.894,0,0,1,.894.894v4.468A.894.894,0,0,1-51.781-60.412Z" transform="translate(57.143 66.667)" fill="none" stroke="#8d8d8d" stroke-linecap="round" stroke-linejoin="round" stroke-width="1.5"/>
      </g>
      <g id="g145" transform="translate(35.271 24.262)">
        <path id="path147" d="M-51.781-60.412h-4.468a.894.894,0,0,1-.894-.894v-4.468a.894.894,0,0,1,.894-.894h4.468a.894.894,0,0,1,.894.894v4.468A.894.894,0,0,1-51.781-60.412Z" transform="translate(57.143 66.667)" fill="none" stroke="#8d8d8d" stroke-linecap="round" stroke-linejoin="round" stroke-width="1.5"/>
      </g>
      <g id="g149" transform="translate(48.02 24.262)">
        <path id="path151" d="M-51.781-60.412h-4.468a.894.894,0,0,1-.894-.894v-4.468a.894.894,0,0,1,.894-.894h4.468a.894.894,0,0,1,.894.894v4.468A.894.894,0,0,1-51.781-60.412Z" transform="translate(57.143 66.667)" fill="none" stroke="#8d8d8d" stroke-linecap="round" stroke-linejoin="round" stroke-width="1.5"/>
      </g>
      <g id="g153" transform="translate(9.773 35.867)">
        <path id="path155" d="M-51.781-60.412h-4.468a.894.894,0,0,1-.894-.894v-4.468a.894.894,0,0,1,.894-.894h4.468a.894.894,0,0,1,.894.894v4.468A.894.894,0,0,1-51.781-60.412Z" transform="translate(57.143 66.667)" fill="none" stroke="#8d8d8d" stroke-linecap="round" stroke-linejoin="round" stroke-width="1.5"/>
      </g>
      <g id="g157" transform="translate(22.522 35.867)">
        <path id="path159" d="M-51.781-60.412h-4.468a.894.894,0,0,1-.894-.894v-4.468a.894.894,0,0,1,.894-.894h4.468a.894.894,0,0,1,.894.894v4.468A.894.894,0,0,1-51.781-60.412Z" transform="translate(57.143 66.667)" fill="none" stroke="#8d8d8d" stroke-linecap="round" stroke-linejoin="round" stroke-width="1.5"/>
      </g>
      <g id="g161" transform="translate(35.271 35.867)">
        <path id="path163" d="M-51.781-60.412h-4.468a.894.894,0,0,1-.894-.894v-4.468a.894.894,0,0,1,.894-.894h4.468a.894.894,0,0,1,.894.894v4.468A.894.894,0,0,1-51.781-60.412Z" transform="translate(57.143 66.667)" fill="none" stroke="#8d8d8d" stroke-linecap="round" stroke-linejoin="round" stroke-width="1.5"/>
      </g>
      <g id="g165" transform="translate(48.02 36.146)">
        <path id="path167" d="M-51.781-60.412h-4.468a.894.894,0,0,1-.894-.894v-4.468a.894.894,0,0,1,.894-.894h4.468a.894.894,0,0,1,.894.894v4.468A.894.894,0,0,1-51.781-60.412Z" transform="translate(57.143 66.667)" fill="none" stroke="#8d8d8d" stroke-linecap="round" stroke-linejoin="round" stroke-width="1.5"/>
      </g>
      <g id="g169" transform="translate(9.773 47.473)">
        <path id="path171" d="M-51.781-60.412h-4.468a.894.894,0,0,1-.894-.894v-4.468a.894.894,0,0,1,.894-.894h4.468a.894.894,0,0,1,.894.894v4.468A.894.894,0,0,1-51.781-60.412Z" transform="translate(57.143 66.667)" fill="none" stroke="#8d8d8d" stroke-linecap="round" stroke-linejoin="round" stroke-width="1.5"/>
      </g>
      <g id="g173" transform="translate(22.522 47.473)">
        <path id="path175" d="M-51.781-60.412h-4.468a.894.894,0,0,1-.894-.894v-4.468a.894.894,0,0,1,.894-.894h4.468a.894.894,0,0,1,.894.894v4.468A.894.894,0,0,1-51.781-60.412Z" transform="translate(57.143 66.667)" fill="none" stroke="#8d8d8d" stroke-linecap="round" stroke-linejoin="round" stroke-width="1.5"/>
      </g>
      <g id="g177" transform="translate(35.271 47.473)">
        <path id="path179" d="M0-21.074v-1.288a.893.893,0,0,1,.894-.894H5.361a.893.893,0,0,1,.894.894v4.468A.894.894,0,0,1,5.361-17H.894A.894.894,0,0,1,0-17.895" transform="translate(0 23.256)" fill="none" stroke="#8d8d8d" stroke-linecap="round" stroke-linejoin="round" stroke-width="1.5"/>
      </g>
    </g>
  </g>
</svg>
