<svg id="clock-2" xmlns="http://www.w3.org/2000/svg" width="22.563" height="22.563" viewBox="0 0 22.563 22.563">
  <g id="Group_11105" data-name="Group 11105">
    <g id="Group_11104" data-name="Group 11104">
      <path id="Path_4658" data-name="Path 4658" d="M176.49,41.226a.492.492,0,0,0,.49-.49V40.49a.49.49,0,1,0-.981,0v.245A.492.492,0,0,0,176.49,41.226Z" transform="translate(-165.209 -37.548)" fill="#d5b5f4"/>
      <path id="Path_4659" data-name="Path 4659" d="M176.49,308a.492.492,0,0,0-.49.491v.245a.49.49,0,0,0,.981,0v-.245A.492.492,0,0,0,176.49,308Z" transform="translate(-165.209 -289.116)" fill="#d5b5f4"/>
      <path id="Path_4660" data-name="Path 4660" d="M40.736,176H40.49a.49.49,0,1,0,0,.981h.245a.49.49,0,1,0,0-.981Z" transform="translate(-37.548 -165.209)" fill="#d5b5f4"/>
      <path id="Path_4661" data-name="Path 4661" d="M308.736,176h-.245a.49.49,0,1,0,0,.981h.245a.49.49,0,0,0,0-.981Z" transform="translate(-289.116 -165.209)" fill="#d5b5f4"/>
      <path id="Path_4662" data-name="Path 4662" d="M80.834,80.147a.486.486,0,0,0-.687.687l.172.172a.474.474,0,0,0,.687,0,.474.474,0,0,0,0-.687Z" transform="translate(-75.095 -75.095)" fill="#d5b5f4"/>
      <path id="Path_4663" data-name="Path 4663" d="M80.319,269.347l-.172.172a.474.474,0,0,0,0,.687.474.474,0,0,0,.687,0l.172-.172a.486.486,0,0,0-.687-.687Z" transform="translate(-75.095 -252.695)" fill="#d5b5f4"/>
      <path id="Path_4664" data-name="Path 4664" d="M269.519,80.147l-.172.172a.474.474,0,0,0,0,.687.474.474,0,0,0,.687,0l.172-.172a.486.486,0,0,0-.687-.687Z" transform="translate(-252.695 -75.095)" fill="#d5b5f4"/>
      <path id="Path_4665" data-name="Path 4665" d="M176.981,104.954V100.49a.49.49,0,1,0-.981,0v4.66a.484.484,0,0,0,.147.343l5.371,5.371a.474.474,0,0,0,.687,0,.474.474,0,0,0,0-.687Z" transform="translate(-165.209 -93.869)" fill="#d5b5f4"/>
      <path id="Path_4666" data-name="Path 4666" d="M11.281,0A11.281,11.281,0,1,0,22.563,11.281,11.283,11.283,0,0,0,11.281,0Zm0,21.582a10.3,10.3,0,1,1,10.3-10.3A10.3,10.3,0,0,1,11.281,21.582Z" fill="#d5b5f4"/>
    </g>
  </g>
</svg>
