<svg xmlns="http://www.w3.org/2000/svg" width="65.547" height="65.652" viewBox="0 0 65.547 65.652">
  <g id="earth" transform="translate(0.75 0.854)">
    <path id="Path_4313" data-name="Path 4313" d="M15.168,18.73a31.943,31.943,0,1,1-2.5,3.348" transform="translate(-7.5 -7.5)" fill="none" stroke="#8d8d8d" stroke-linecap="round" stroke-linejoin="round" stroke-width="1.5"/>
    <path id="Path_4314" data-name="Path 4314" d="M78.669,306.274l-6.289-13.627a5.165,5.165,0,0,0-1.469-1.873l-1.84-1.468a4.132,4.132,0,0,1-1.3-4.666l1.654-4.461H77.29a2.066,2.066,0,0,1,2.066,2.066v.2a2.066,2.066,0,0,0,1.347,1.937l2.549.946a3.1,3.1,0,0,1,1.675,4.329l-3.1,6a7.231,7.231,0,0,0-.61,5l1.662,6.964" transform="translate(-59.782 -245.038)" fill="none" stroke="#8d8d8d" stroke-linecap="round" stroke-linejoin="round" stroke-width="1.5"/>
    <path id="Path_4315" data-name="Path 4315" d="M33.492,146.878l1.845,12.8a4.132,4.132,0,0,0,2.021,2.987l2.425,1.4" transform="translate(-30.142 -128.917)" fill="none" stroke="#8d8d8d" stroke-linecap="round" stroke-linejoin="round" stroke-width="1.5"/>
    <path id="Path_4316" data-name="Path 4316" d="M48.726,38.824l4.031-2.588a2.066,2.066,0,0,1,2.465.174l.567.488a1.209,1.209,0,0,0,1.968-.645l.6-2.631a4.132,4.132,0,0,1,2.713-2.993l4.457-1.495a2.066,2.066,0,0,0,1.086-3.068l-2.026-3.184a2.066,2.066,0,0,0-2.616-.763l-1.795.837a1.985,1.985,0,0,1-2.477-.678h0a1.985,1.985,0,0,1,.683-2.861l4.205-2.309a3.1,3.1,0,0,1,4.045.96l.391.569a3.1,3.1,0,0,0,2.554,1.343h1.892a3.1,3.1,0,0,0,2.864-1.916l1.126-2.726a4.132,4.132,0,0,0-.326-3.785L73.462,8.9" transform="translate(-43.413 -8.719)" fill="none" stroke="#8d8d8d" stroke-linecap="round" stroke-linejoin="round" stroke-width="1.5"/>
    <path id="Path_4317" data-name="Path 4317" d="M298.471,42.971a2.146,2.146,0,0,0,2.146-2.146h0a2.146,2.146,0,0,0-2.146-2.146h-7.629a1.632,1.632,0,0,0-1.626,1.494h0a3.055,3.055,0,0,1-3.044,2.8h0a3.055,3.055,0,0,1-3.055-3.055v-.787a4.132,4.132,0,0,1,2.028-3.556l6.721-3.977a1.959,1.959,0,0,0,.43-3.028h0a1.96,1.96,0,0,0-2.19-.464l-.669.282a2.065,2.065,0,0,1-2.687-1.058h0a2.065,2.065,0,0,1,.542-2.414l2.7-2.305" transform="translate(-247.598 -20.663)" fill="none" stroke="#8d8d8d" stroke-linecap="round" stroke-linejoin="round" stroke-width="1.5"/>
    <path id="Path_4318" data-name="Path 4318" d="M311.049,186.08l-.747.647a4.132,4.132,0,0,1-3.142.987l-1.917-.2,1,3.6a5.165,5.165,0,0,1-.485,3.928l-7.7,13.586a2.5,2.5,0,0,1-2.174,1.266h0a2.5,2.5,0,0,1-2.5-2.5V196.247a3.1,3.1,0,0,0-3.1-3.1h-.9a6.268,6.268,0,0,1-6.268-6.268h0a6.268,6.268,0,0,1,6.268-6.268h4.978" transform="translate(-247.597 -158.303)" fill="none" stroke="#8d8d8d" stroke-linecap="round" stroke-linejoin="round" stroke-width="1.5"/>
  </g>
</svg>
