<svg id="Layer_15" data-name="Layer 15" xmlns="http://www.w3.org/2000/svg" width="49.77" height="39.783" viewBox="0 0 49.77 39.783">
  <path id="Path_4576" data-name="Path 4576" d="M29.151,44.555a1.777,1.777,0,0,0,1.777-1.777V37.251a6.77,6.77,0,0,0,0-13.079V6.6a1.777,1.777,0,0,0-3.554,0V24.19a6.77,6.77,0,0,0,0,13.079V42.8A1.777,1.777,0,0,0,29.151,44.555ZM25.9,30.711a3.252,3.252,0,1,1,3.252,3.252A3.252,3.252,0,0,1,25.9,30.711Z" transform="translate(13.825 -4.772)" fill="#fff"/>
  <path id="Path_4577" data-name="Path 4577" d="M18.976,44.576A1.777,1.777,0,0,0,20.754,42.8V18.169a6.806,6.806,0,1,0-3.554,0V42.8A1.777,1.777,0,0,0,18.976,44.576ZM15.724,11.647a3.252,3.252,0,1,1,3.252,3.234,3.252,3.252,0,0,1-3.252-3.234Z" transform="translate(5.909 -4.793)" fill="#fff"/>
  <path id="Path_4578" data-name="Path 4578" d="M7.014,31.227V42.777a1.777,1.777,0,0,0,3.554,0V31.227a6.77,6.77,0,0,0,0-13.079V6.6a1.777,1.777,0,0,0-3.554,0V18.148a6.77,6.77,0,0,0,0,13.079Zm1.777-9.791a3.252,3.252,0,1,1-3.234,3.252,3.252,3.252,0,0,1,3.234-3.252Z" transform="translate(-1.997 -4.772)" fill="#fff"/>
</svg>
