<svg xmlns="http://www.w3.org/2000/svg" width="34.23" height="34.229" viewBox="0 0 34.23 34.229">
  <g id="Group_10754" data-name="Group 10754" transform="translate(-415)">
    <g id="instagram-2" transform="translate(415)">
      <path id="Path_4351" data-name="Path 4351" d="M34.127,10.059a12.565,12.565,0,0,0-.8-4.154,8.388,8.388,0,0,0-1.974-3.031A8.391,8.391,0,0,0,28.326.9,12.563,12.563,0,0,0,24.171.1C22.346.02,21.763,0,17.115,0s-5.231.02-7.056.1A12.566,12.566,0,0,0,5.9.9,8.388,8.388,0,0,0,2.873,2.873,8.39,8.39,0,0,0,.9,5.9,12.564,12.564,0,0,0,.1,10.058C.02,11.884,0,12.467,0,17.115s.02,5.231.1,7.057a12.562,12.562,0,0,0,.8,4.154,8.387,8.387,0,0,0,1.974,3.031A8.386,8.386,0,0,0,5.9,33.331a12.558,12.558,0,0,0,4.154.8c1.825.083,2.408.1,7.056.1s5.231-.02,7.056-.1a12.56,12.56,0,0,0,4.154-.8,8.75,8.75,0,0,0,5.005-5.005,12.561,12.561,0,0,0,.8-4.154c.083-1.825.1-2.408.1-7.056S34.21,11.884,34.127,10.059ZM31.046,24.031a9.469,9.469,0,0,1-.589,3.178,5.668,5.668,0,0,1-3.248,3.248,9.469,9.469,0,0,1-3.178.589c-1.8.083-2.346.1-6.916.1s-5.112-.017-6.916-.1a9.473,9.473,0,0,1-3.178-.589,5.3,5.3,0,0,1-1.968-1.28,5.3,5.3,0,0,1-1.28-1.968,9.469,9.469,0,0,1-.589-3.178c-.082-1.8-.1-2.346-.1-6.916S3.1,12,3.183,10.2a9.476,9.476,0,0,1,.589-3.178,5.306,5.306,0,0,1,1.28-1.968,5.3,5.3,0,0,1,1.968-1.28A9.468,9.468,0,0,1,10.2,3.183c1.8-.082,2.346-.1,6.916-.1h0c4.57,0,5.111.017,6.916.1a9.471,9.471,0,0,1,3.178.589,5.307,5.307,0,0,1,1.968,1.28,5.3,5.3,0,0,1,1.28,1.968,9.461,9.461,0,0,1,.589,3.178c.082,1.8.1,2.346.1,6.916S31.129,22.226,31.046,24.031Zm0,0" transform="translate(0 0)" fill="#fff"/>
      <path id="Path_4352" data-name="Path 4352" d="M133.328,124.539a8.789,8.789,0,1,0,8.789,8.789A8.789,8.789,0,0,0,133.328,124.539Zm0,14.494a5.705,5.705,0,1,1,5.705-5.705A5.7,5.7,0,0,1,133.328,139.033Zm0,0" transform="translate(-116.213 -116.213)" fill="#fff"/>
      <path id="Path_4353" data-name="Path 4353" d="M366.037,90.679a2.054,2.054,0,1,1-2.054-2.054A2.054,2.054,0,0,1,366.037,90.679Zm0,0" transform="translate(-337.733 -82.7)" fill="#fff"/>
    </g>
  </g>
</svg>
