<svg xmlns="http://www.w3.org/2000/svg" width="33.047" height="31.587" viewBox="0 0 33.047 31.587">
  <g id="Group_10744" data-name="Group 10744" transform="translate(-598)">
    <g id="linkedin-2" transform="translate(598)">
      <path id="Path_4330" data-name="Path 4330" d="M6.488,159.684h7.084V181H6.488Zm0,0" transform="translate(-6.069 -149.409)" fill="#fff"/>
      <path id="Path_4331" data-name="Path 4331" d="M4.008.5a3.692,3.692,0,1,0-.093,7.364h.046A3.694,3.694,0,1,0,4.008.5Zm0,0" transform="translate(0 -0.5)" fill="#fff"/>
      <path id="Path_4332" data-name="Path 4332" d="M190.441,151.934a7.033,7.033,0,0,0-6.384,3.518v-3.018h-7.084v21.313h7.084v-11.9a4.856,4.856,0,0,1,.233-1.729,3.878,3.878,0,0,1,3.635-2.591c2.563,0,3.589,1.954,3.589,4.82v11.4H198.6V161.526C198.6,154.98,195.1,151.934,190.441,151.934Zm0,0" transform="translate(-165.55 -142.159)" fill="#fff"/>
    </g>
  </g>
</svg>
