<svg xmlns="http://www.w3.org/2000/svg" xmlns:xlink="http://www.w3.org/1999/xlink" width="190" height="59" viewBox="0 0 190 59">
  <defs>
    <linearGradient id="linear-gradient" x1="0.5" x2="0.5" y2="1" gradientUnits="objectBoundingBox">
      <stop offset="0" stop-color="#ffd572"/>
      <stop offset="1" stop-color="#e1d8d1"/>
      <stop offset="1" stop-color="#b7006a"/>
    </linearGradient>
    <linearGradient id="linear-gradient-2" y1="1" y2="0" xlink:href="#linear-gradient"/>
  </defs>
  <g id="Group_10792" data-name="Group 10792" transform="translate(6089 15892)">
    <rect id="Rectangle_4112" data-name="Rectangle 4112" width="17" height="22" transform="translate(-5916 -15892)" fill="url(#linear-gradient)"/>
    <rect id="Rectangle_4113" data-name="Rectangle 4113" width="17" height="22" transform="translate(-6089 -15855)" fill="url(#linear-gradient-2)"/>
    <g id="Rectangle_4107" data-name="Rectangle 4107" transform="translate(-6089 -15892)" fill="none" stroke="#707070" stroke-width="0.5">
      <rect width="190" height="59" stroke="none"/>
      <rect x="0.25" y="0.25" width="189.5" height="58.5" fill="none"/>
    </g>
    <rect id="Rectangle_4110" data-name="Rectangle 4110" width="180" height="49" transform="translate(-6084 -15887)"/>
    <text id="uduX_Web" data-name="uduX Web" transform="translate(-5986.274 -15848.5)" fill="#fff" font-size="18" font-family="BwModelica-Bold, Bw Modelica" font-weight="700" letter-spacing="-0.04em"><tspan x="-44" y="0">uduX Web</tspan></text>
    <text id="LISTEN_ON_THE_GO" data-name="LISTEN ON THE GO" transform="translate(-5981.274 -15869.5)" fill="#fff" font-size="11" font-family="BwModelica-Medium, Bw Modelica" font-weight="500" letter-spacing="-0.04em"><tspan x="-50" y="0">LISTEN ON THE GO</tspan></text>
    <g id="earth" transform="translate(-6071 -15878.315)">
      <path id="Path_4313" data-name="Path 4313" d="M11.329,13.108a15.951,15.951,0,1,1-1.25,1.672" transform="translate(-7.5 -7.5)" fill="none" stroke="#fff" stroke-linecap="round" stroke-linejoin="round" stroke-width="1.25"/>
      <path id="Path_4314" data-name="Path 4314" d="M73.086,293.208l-3.14-6.8a2.579,2.579,0,0,0-.733-.935l-.919-.733a2.063,2.063,0,0,1-.648-2.33l.826-2.228H72.4a1.032,1.032,0,0,1,1.032,1.032v.1a1.032,1.032,0,0,0,.673.967l1.273.472a1.548,1.548,0,0,1,.836,2.162l-1.55,3a3.611,3.611,0,0,0-.3,2.5l.83,3.478" transform="translate(-63.654 -262.63)" fill="none" stroke="#fff" stroke-linecap="round" stroke-linejoin="round" stroke-width="1.25"/>
      <path id="Path_4315" data-name="Path 4315" d="M33.492,146.878l.922,6.39a2.064,2.064,0,0,0,1.009,1.492l1.211.7" transform="translate(-31.819 -137.909)" fill="none" stroke="#fff" stroke-linecap="round" stroke-linejoin="round" stroke-width="1.25"/>
      <path id="Path_4316" data-name="Path 4316" d="M48.726,23.842l2.013-1.293a1.032,1.032,0,0,1,1.231.087l.283.244a.6.6,0,0,0,.982-.322l.3-1.314a2.063,2.063,0,0,1,1.355-1.495L57.118,19a1.032,1.032,0,0,0,.542-1.532l-1.012-1.59a1.032,1.032,0,0,0-1.306-.381l-.9.418a.991.991,0,0,1-1.237-.339h0a.991.991,0,0,1,.341-1.429L55.65,13a1.548,1.548,0,0,1,2.02.48l.2.284a1.548,1.548,0,0,0,1.275.671h.945a1.548,1.548,0,0,0,1.43-.957l.562-1.361a2.063,2.063,0,0,0-.163-1.89L61.078,8.9" transform="translate(-46.073 -8.809)" fill="none" stroke="#fff" stroke-linecap="round" stroke-linejoin="round" stroke-width="1.25"/>
      <path id="Path_4317" data-name="Path 4317" d="M290.784,32.777a1.071,1.071,0,0,0,1.071-1.071h0a1.071,1.071,0,0,0-1.071-1.071h-3.81a.815.815,0,0,0-.812.746h0a1.526,1.526,0,0,1-1.52,1.4h0a1.526,1.526,0,0,1-1.526-1.526v-.393a2.063,2.063,0,0,1,1.013-1.776l3.356-1.986a.978.978,0,0,0,.215-1.512h0a.978.978,0,0,0-1.094-.231l-.334.141a1.031,1.031,0,0,1-1.342-.528h0a1.031,1.031,0,0,1,.271-1.205l1.346-1.151" transform="translate(-265.38 -21.638)" fill="none" stroke="#fff" stroke-linecap="round" stroke-linejoin="round" stroke-width="1.25"/>
      <path id="Path_4318" data-name="Path 4318" d="M297.064,183.342l-.373.323a2.063,2.063,0,0,1-1.569.493l-.957-.1.5,1.8a2.579,2.579,0,0,1-.242,1.961l-3.847,6.784a1.248,1.248,0,0,1-1.085.632h0a1.248,1.248,0,0,1-1.248-1.248v-5.566a1.548,1.548,0,0,0-1.547-1.548h-.448a3.13,3.13,0,0,1-3.13-3.13h0a3.13,3.13,0,0,1,3.13-3.13h2.486" transform="translate(-265.379 -169.471)" fill="none" stroke="#fff" stroke-linecap="round" stroke-linejoin="round" stroke-width="1.25"/>
    </g>
  </g>
</svg>
