<svg xmlns="http://www.w3.org/2000/svg" viewBox="0 0 11.75 14.63"><path d="M5.87,14.63h0a.49.49,0,0,1-.39-.19c-.38-.49-.8-1-1.25-1.55C2.25,10.48,0,7.74,0,5.17,0,2.32,2.64,0,5.87,0s5.88,2.32,5.88,5.17c0,2.57-2.25,5.31-4.23,7.72-.45.54-.88,1.06-1.25,1.55A.5.5,0,0,1,5.87,14.63ZM5.87,1C3.19,1,1,2.87,1,5.17s2.22,4.91,4,7.08c.31.37.6.73.87,1.07l.87-1.07c1.79-2.16,4-4.86,4-7.08S8.56,1,5.87,1ZM5.72,7.79A2.81,2.81,0,0,1,2.93,5.21a2.83,2.83,0,0,1,3-2.66A2.8,2.8,0,0,1,8.82,5.13,2.82,2.82,0,0,1,5.87,7.79Zm.06-4.25A1.82,1.82,0,0,0,3.93,5.21,1.81,1.81,0,0,0,5.84,6.79h.07A1.82,1.82,0,0,0,7.82,5.13,1.81,1.81,0,0,0,5.91,3.55Z" fill="#919A57"/></svg>