<svg xmlns="http://www.w3.org/2000/svg" width="46.434" height="48.066" viewBox="0 0 46.434 48.066">
  <g id="Group_10753" data-name="Group 10753" transform="translate(-542)">
    <g id="Group_10752" data-name="Group 10752" transform="translate(542)">
      <g id="chatbot" transform="translate(0 0)">
        <g id="Group_10750" data-name="Group 10750" transform="translate(0.704 0.704)">
          <path id="Path_4333" data-name="Path 4333" d="M411.793,286.866h-3.572v-12.23h3.572a2.26,2.26,0,0,1,2.26,2.26v7.71A2.26,2.26,0,0,1,411.793,286.866Z" transform="translate(-371.444 -249.575)" fill="#d6d1d6"/>
          <path id="Path_4334" data-name="Path 4334" d="M18.459,286.866h4.322v-12.23H18.459a2.26,2.26,0,0,0-2.26,2.26v7.71a2.26,2.26,0,0,0,2.26,2.26Z" transform="translate(-16.199 -249.575)" fill="#d6d1d6"/>
          <g id="Group_10749" data-name="Group 10749" transform="translate(4.33)">
            <path id="Path_4335" data-name="Path 4335" d="M86.523,205.744H72.141a9.783,9.783,0,0,1-9.783-9.783v-11.4a9.783,9.783,0,0,1,9.783-9.783H86.523a9.783,9.783,0,0,1,9.783,9.783v11.4A9.783,9.783,0,0,1,86.523,205.744Z" transform="translate(-62.358 -159.085)" fill="#f8f7f8"/>
            <path id="Path_4336" data-name="Path 4336" d="M64.61,196.17v-11.9a9.786,9.786,0,0,1,7.279-9.459,9.783,9.783,0,0,0-9.531,9.779v11.4a9.783,9.783,0,0,0,9.783,9.783h.4A9.785,9.785,0,0,1,64.61,196.17Z" transform="translate(-62.358 -159.117)" fill="#e5e5e5"/>
            <g id="XMLID_00000031206873733606243760000014112294200693021091_" transform="translate(3.874 21.154)">
              <g id="Group_10745" data-name="Group 10745">
                <path id="Path_4337" data-name="Path 4337" d="M129.766,241.683v8.543a3.194,3.194,0,0,1-3.194,3.194H106.846a3.194,3.194,0,0,1-3.194-3.194v-8.543a8.694,8.694,0,0,1,8.694-8.694h8.727A8.694,8.694,0,0,1,129.766,241.683Z" transform="translate(-103.652 -232.989)" fill="#dbdbdb"/>
              </g>
            </g>
            <circle id="Ellipse_35" data-name="Ellipse 35" cx="2.19" cy="2.19" r="2.19" transform="translate(8.278 6.335)" fill="#e79098"/>
            <g id="XMLID_00000045603103126687639700000005359147464042841750_" transform="translate(11.504 21.154)">
              <g id="Group_10746" data-name="Group 10746">
                <path id="Path_4338" data-name="Path 4338" d="M195.835,233.052l-.009.022-.993,2.274a1.459,1.459,0,0,1-1.338.876h-6.173a1.462,1.462,0,0,1-1.339-.876l-.992-2.274-.01-.022a8.65,8.65,0,0,1,1.064-.064h8.727A8.662,8.662,0,0,1,195.835,233.052Z" transform="translate(-184.982 -232.988)" fill="#9f9f9f"/>
              </g>
            </g>
            <g id="Group_10747" data-name="Group 10747" transform="translate(9.558 28.459)">
              <circle id="Ellipse_36" data-name="Ellipse 36" cx="1.606" cy="1.606" r="1.606" fill="#f8f7f8"/>
              <circle id="Ellipse_37" data-name="Ellipse 37" cx="1.606" cy="1.606" r="1.606" transform="translate(11.534)" fill="#f8f7f8"/>
              <path id="Path_4339" data-name="Path 4339" d="M217.022,381.014h-5.167a.4.4,0,0,0-.4.4v.684a2.9,2.9,0,0,0,2.9,2.9h.173a2.9,2.9,0,0,0,2.9-2.9v-.684A.4.4,0,0,0,217.022,381.014Z" transform="translate(-207.023 -374.432)" fill="#f8f7f8"/>
            </g>
            <path id="Path_4340" data-name="Path 4340" d="M301.6,7.5H285.7a2.016,2.016,0,0,0-2.016,2.016v8.059A2.016,2.016,0,0,0,285.7,19.59h2.891l.844,1.13a.6.6,0,0,0,.963,0l.844-1.13H301.6a2.016,2.016,0,0,0,2.016-2.016V9.516A2.015,2.015,0,0,0,301.6,7.5Z" transform="translate(-262.917 -7.5)" fill="#c5e97d"/>
            <g id="Group_10748" data-name="Group 10748" transform="translate(20.763 0)">
              <path id="Path_4341" data-name="Path 4341" d="M286.289,17.575V9.516A2.016,2.016,0,0,1,288.3,7.5H285.7a2.016,2.016,0,0,0-2.016,2.016v8.059A2.016,2.016,0,0,0,285.7,19.59H288.3A2.016,2.016,0,0,1,286.289,17.575Z" transform="translate(-283.681 -7.5)" fill="#b1e254"/>
            </g>
          </g>
        </g>
        <g id="Group_10751" data-name="Group 10751" transform="translate(0 0)">
          <path id="Path_4342" data-name="Path 4342" d="M49.752,86.251H48.326A10.5,10.5,0,0,0,37.9,76.883H24.905V73.224a2.893,2.893,0,1,0-1.407,0v3.659A10.5,10.5,0,0,0,13.09,86.251H11.663A2.967,2.967,0,0,0,8.7,89.215V91.57a.7.7,0,0,0,1.407,0V89.215a1.558,1.558,0,0,1,1.556-1.556H13.03V98.481H11.663a1.558,1.558,0,0,1-1.556-1.556V94.569a.7.7,0,0,0-1.407,0v2.356a2.967,2.967,0,0,0,2.963,2.963H13.09a10.5,10.5,0,0,0,10.427,9.368H37.9a10.5,10.5,0,0,0,10.427-9.368h1.427a2.967,2.967,0,0,0,2.963-2.963v-7.71A2.967,2.967,0,0,0,49.752,86.251ZM22.716,70.418A1.486,1.486,0,1,1,24.2,71.9,1.488,1.488,0,0,1,22.716,70.418ZM46.978,98.77a9.089,9.089,0,0,1-9.079,9.079H23.516a9.089,9.089,0,0,1-9.079-9.079v-11.4a9.089,9.089,0,0,1,9.079-9.079H37.9a9.089,9.089,0,0,1,9.079,9.079Zm4.33-1.845a1.558,1.558,0,0,1-1.556,1.556H48.385V87.659h1.367a1.558,1.558,0,0,1,1.556,1.556Z" transform="translate(-8.7 -61.19)" fill="#272727"/>
          <path id="Path_4343" data-name="Path 4343" d="M159.051,303.35a2.31,2.31,0,1,0,2.31,2.31A2.312,2.312,0,0,0,159.051,303.35Zm0,3.212a.9.9,0,1,1,.9-.9A.9.9,0,0,1,159.051,306.562Z" transform="translate(-142.853 -274.891)"/>
          <path id="Path_4344" data-name="Path 4344" d="M281.992,307.968a2.31,2.31,0,1,0-2.31-2.31A2.312,2.312,0,0,0,281.992,307.968Zm0-3.212a.9.9,0,1,1-.9.9A.9.9,0,0,1,281.992,304.756Z" transform="translate(-254.26 -274.891)"/>
          <path id="Path_4345" data-name="Path 4345" d="M207.557,378.908h.173a3.608,3.608,0,0,0,3.6-3.6v-.684a1.108,1.108,0,0,0-1.107-1.107H205.06a1.108,1.108,0,0,0-1.107,1.107v.684A3.608,3.608,0,0,0,207.557,378.908Zm-2.2-3.987h4.566v.383a2.2,2.2,0,0,1-2.2,2.2h-.173a2.2,2.2,0,0,1-2.2-2.2v-.383Z" transform="translate(-185.636 -338.472)"/>
          <path id="Path_4346" data-name="Path 4346" d="M342.931,48.234a.7.7,0,0,0,.7-.7V42.75a.7.7,0,0,0-1.407,0v1.6h-1.9v-1.6a.7.7,0,0,0-1.407,0V47.53a.7.7,0,0,0,1.407,0V45.762h1.9V47.53A.7.7,0,0,0,342.931,48.234Z" transform="translate(-307.94 -38.101)"/>
          <path id="Path_4347" data-name="Path 4347" d="M407.592,73.644a.7.7,0,0,0-.7.7v1.816a.7.7,0,1,0,1.407,0V74.348A.7.7,0,0,0,407.592,73.644Z" transform="translate(-369.532 -66.735)"/>
          <path id="Path_4348" data-name="Path 4348" d="M406.888,47.97v.2a.7.7,0,1,0,1.407,0v-.2a.7.7,0,1,0-1.407,0Z" transform="translate(-369.532 -42.832)"/>
          <path id="Path_4349" data-name="Path 4349" d="M294.8,0h-3.234a.7.7,0,1,0,0,1.407H294.8a1.313,1.313,0,0,1,1.312,1.312v8.059A1.313,1.313,0,0,1,294.8,12.09h-10.36a.7.7,0,0,0-.564.282l-.762,1.02-.762-1.02a.7.7,0,0,0-.564-.282H278.9a1.313,1.313,0,0,1-1.312-1.312V2.719A1.313,1.313,0,0,1,278.9,1.407h9.67a.7.7,0,0,0,0-1.407H278.9a2.722,2.722,0,0,0-2.719,2.719v8.059A2.722,2.722,0,0,0,278.9,13.5h2.538l.633.847a1.3,1.3,0,0,0,2.09,0l.633-.847H294.8a2.722,2.722,0,0,0,2.719-2.719V2.719A2.722,2.722,0,0,0,294.8,0Z" transform="translate(-251.087 0)"/>
          <path id="Path_4350" data-name="Path 4350" d="M114.272,225.486h-8.727a9.408,9.408,0,0,0-9.4,9.4v8.543a3.9,3.9,0,0,0,3.9,3.9h19.726a3.9,3.9,0,0,0,3.9-3.9V240.11a.7.7,0,0,0-1.407,0v3.316a2.494,2.494,0,0,1-2.491,2.491H100.046a2.494,2.494,0,0,1-2.491-2.491v-8.543a8,8,0,0,1,6.5-7.849l.784,1.8a2.163,2.163,0,0,0,1.983,1.3H113a2.164,2.164,0,0,0,1.983-1.3l.784-1.8a8,8,0,0,1,6.5,7.849v2.228a.7.7,0,0,0,1.407,0v-2.228A9.408,9.408,0,0,0,114.272,225.486Zm-.583,2.783a.756.756,0,0,1-.693.454h-6.173a.756.756,0,0,1-.693-.454l-.6-1.375h8.76Z" transform="translate(-87.944 -204.332)"/>
        </g>
      </g>
    </g>
  </g>
</svg>
