<svg id="_7-days-2" data-name="7-days-2" xmlns="http://www.w3.org/2000/svg" width="73.256" height="64.08" viewBox="0 0 73.256 64.08">
  <path id="Path_4450" data-name="Path 4450" d="M40.068,80.236H4.514a2.37,2.37,0,0,1-2.368-2.368V45.68h55.2V62.958a1.073,1.073,0,1,0,2.146,0V40.02a4.519,4.519,0,0,0-4.514-4.514H53.758v-.074a3.367,3.367,0,1,0-6.734,0v.074H12.468v-.074a3.367,3.367,0,1,0-6.734,0v.074H4.514A4.519,4.519,0,0,0,0,40.02V77.868a4.519,4.519,0,0,0,4.514,4.514H40.068a1.073,1.073,0,1,0,0-2.146Zm9.1-44.8a1.221,1.221,0,1,1,2.441,0v2.294a1.221,1.221,0,1,1-2.441,0Zm-41.289,0a1.221,1.221,0,1,1,2.441,0v2.294a1.221,1.221,0,1,1-2.441,0Zm-3.367,2.22H5.735v.074a3.367,3.367,0,1,0,6.734,0v-.074H47.024v.074a3.367,3.367,0,1,0,6.734,0v-.074h1.221a2.37,2.37,0,0,1,2.368,2.368v3.515H2.146V40.02a2.37,2.37,0,0,1,2.368-2.368Z" transform="translate(0 -32.065)" fill="#8d8d8d"/>
  <path id="Path_4451" data-name="Path 4451" d="M319.449,272.548a14.836,14.836,0,1,0,14.836,14.836A14.853,14.853,0,0,0,319.449,272.548Zm0,27.526a12.69,12.69,0,1,1,12.69-12.69A12.7,12.7,0,0,1,319.449,300.074Z" transform="translate(-261.03 -238.14)" fill="#8d8d8d"/>
  <path id="Path_4452" data-name="Path 4452" d="M401.88,307.906a1.073,1.073,0,0,0,1.073-1.073v-1.147a1.073,1.073,0,1,0-2.146,0v1.147A1.073,1.073,0,0,0,401.88,307.906Z" transform="translate(-343.461 -265.618)" fill="#8d8d8d"/>
  <path id="Path_4453" data-name="Path 4453" d="M401.88,424.855a1.073,1.073,0,0,0-1.073,1.073v1.147a1.073,1.073,0,1,0,2.146,0v-1.147A1.073,1.073,0,0,0,401.88,424.855Z" transform="translate(-343.461 -368.656)" fill="#8d8d8d"/>
  <path id="Path_4454" data-name="Path 4454" d="M459.14,368.742h-1.147a1.073,1.073,0,0,0,0,2.146h1.147a1.073,1.073,0,0,0,0-2.146Z" transform="translate(-391.545 -320.571)" fill="#8d8d8d"/>
  <path id="Path_4455" data-name="Path 4455" d="M338.9,368.742H337.75a1.073,1.073,0,1,0,0,2.146H338.9a1.073,1.073,0,0,0,0-2.146Z" transform="translate(-288.506 -320.571)" fill="#8d8d8d"/>
  <path id="Path_4456" data-name="Path 4456" d="M372.51,328.976l-4.976,4.976-4.976-4.976a1.073,1.073,0,0,0-1.517,1.518l5.735,5.735a1.073,1.073,0,0,0,1.517,0l5.735-5.735a1.073,1.073,0,1,0-1.518-1.518Z" transform="translate(-309.115 -286.225)" fill="#8d8d8d"/>
  <path id="Path_4458" data-name="Path 4458" d="M228.785,184.8a1.217,1.217,0,0,0-1.13-.757h0a1.217,1.217,0,0,0-1.13.759l-.01.024-2.461,6.461a1.073,1.073,0,0,0,2.005.764l.35-.918h2.472l.345.915a1.073,1.073,0,0,0,2.008-.758l-2.438-6.462Zm-1.558,4.187.424-1.115.421,1.115Z" transform="translate(-191.937 -162.301)" fill="none" stroke="#8d8d8d" stroke-width="0.6"/>
  <path id="Path_4459" data-name="Path 4459" d="M171.931,184.723a1.073,1.073,0,0,0-1.073,1.075s0,2.446,0,3.171c0,.884.008,3.191.008,3.191a1.073,1.073,0,0,0,1.073,1.069h0c.055,0,1.341-.005,1.856-.014,2.069-.036,3.57-1.819,3.57-4.239,0-2.544-1.463-4.253-3.641-4.253h-1.8Zm3.3,4.253c0,1.029-.452,2.075-1.461,2.093-.179,0-.462.006-.753.008,0-.722,0-1.626,0-2.108,0-.405,0-1.346,0-2.1h.726C175.12,186.869,175.227,188.482,175.227,188.976Z" transform="translate(-146.412 -162.881)" fill="none" stroke="#8d8d8d" stroke-width="0.6"/>
  <path id="Path_4460" data-name="Path 4460" d="M330.187,190.612a2.024,2.024,0,0,1-1.489-.619,1.073,1.073,0,1,0-1.59,1.441,4.144,4.144,0,0,0,3.079,1.324,2.956,2.956,0,0,0,3.008-2.3,2.707,2.707,0,0,0-2.067-3c-.759-.28-1.469-.584-1.733-.7a.2.2,0,0,1-.048-.174.431.431,0,0,1,.343-.318,1.927,1.927,0,0,1,1.57.371,1.073,1.073,0,0,0,1.374-1.649,4.016,4.016,0,0,0-3.563-.777,2.557,2.557,0,0,0-1.849,2.068,2.335,2.335,0,0,0,1.042,2.311,1.078,1.078,0,0,0,.149.081c.038.017.948.422,1.972.8.349.129.741.365.7.609a.862.862,0,0,1-.895.536Z" transform="translate(-280.068 -162.313)" fill="none" stroke="#8d8d8d" stroke-width="0.6"/>
  <path id="Path_4461" data-name="Path 4461" d="M280.037,188.646l1.9-2.923a1.073,1.073,0,1,0-1.8-1.171l-1.178,1.81-1.193-1.828a1.073,1.073,0,1,0-1.8,1.173l1.918,2.937-.007,3.027a1.073,1.073,0,0,0,1.07,1.076h0a1.073,1.073,0,0,0,1.073-1.07Z" transform="translate(-236.338 -162.302)" fill="none" stroke="#8d8d8d" stroke-width="0.6"/>
  <path id="Path_4462" data-name="Path 4462" d="M205.385,347.125a1.657,1.657,0,1,0,1.176,2.816,1.671,1.671,0,0,0,.48-1.16,1.669,1.669,0,0,0-1.657-1.657Zm0,2.728a1.072,1.072,0,0,1,0-2.143,1.071,1.071,0,0,1,0,2.143Zm0,0" transform="translate(-188.671 -315.054)" fill="#8d8d8d"/>
  <path id="Path_4463" data-name="Path 4463" d="M160.407,84.546a.293.293,0,0,0,.413-.028A3.819,3.819,0,0,0,161.883,82a2.913,2.913,0,0,0-1.147-2.315,4.639,4.639,0,0,0-2.918-.9,4.311,4.311,0,0,0-2.828.9,2.412,2.412,0,0,0-.954,1.771,1.246,1.246,0,0,0,.461.992,1.447,1.447,0,0,0,.894.311,1.151,1.151,0,0,0,1-.65,1.363,1.363,0,0,1,1.375-.714c.305,0,1.3.066,1.3.912,0,.639-.59,1.092-1.111,1.492-.129.1-.25.192-.363.288A3.522,3.522,0,0,0,156.3,87c0,.888.215,1.48,1.267,1.48a1.514,1.514,0,0,0,1.045-.314.926.926,0,0,0,.292-.706,1.951,1.951,0,0,1,.88-1.984l.015-.012.133-.105a.293.293,0,0,0-.367-.455l-.126.1-.015.012a2.5,2.5,0,0,0-1.1,2.445c0,.13,0,.434-.752.434-.367,0-.479-.077-.536-.144a1.267,1.267,0,0,1-.146-.75,2.946,2.946,0,0,1,1.084-2.469c.1-.086.217-.175.34-.269a2.616,2.616,0,0,0,1.34-1.956c0-.909-.741-1.5-1.887-1.5a1.924,1.924,0,0,0-1.859.97c-.19.28-.276.394-.515.394a.727.727,0,0,1-.77-.717,1.832,1.832,0,0,1,.742-1.32,3.739,3.739,0,0,1,2.455-.761c2.049,0,3.48,1.081,3.48,2.63a3.256,3.256,0,0,1-.918,2.129A.292.292,0,0,0,160.407,84.546Zm0,0" transform="translate(-140.874 -57.045)" fill="#8d8d8d"/>
</svg>
