<?xml version="1.0" encoding="UTF-8" standalone="no"?>
<!-- Created with Inkscape (http://www.inkscape.org/) -->

<svg
   version="1.1"
   id="svg4590"
   xml:space="preserve"
   width="682.66669"
   height="682.66669"
   viewBox="0 0 682.66669 682.66669"
   xmlns="http://www.w3.org/2000/svg"
   xmlns:svg="http://www.w3.org/2000/svg"><defs
     id="defs4594"><clipPath
       clipPathUnits="userSpaceOnUse"
       id="clipPath4604"><path
         d="M 0,512 H 512 V 0 H 0 Z"
         id="path4602" /></clipPath></defs><g
     id="g4596"
     transform="matrix(1.3333333,0,0,-1.3333333,0,682.66667)"><g
       id="g4598"><g
         id="g4600"
         clip-path="url(#clipPath4604)"><g
           id="g4606"
           transform="translate(226.5518,110.8037)"><path
             d="m 0,0 c 16.983,-9.316 24.412,-29.24 18.538,-46.938 -1.334,-4.019 0.39,-8.418 4.113,-10.461 l 21.88,-12.003 141.24,256.535 -127.095,69.722 -15.58,-28.297"
             style="fill:none;stroke:#060606;stroke-width:15;stroke-linecap:round;stroke-linejoin:round;stroke-miterlimit:10;stroke-dasharray:none;stroke-opacity:1"
             id="path4608" /></g><g
           id="g4610"
           transform="translate(471.9834,428.7949)"><path
             d="m 0,0 -12.367,6.784 c -3.724,2.043 -8.368,1.137 -11.052,-2.142 -11.818,-14.437 -32.65,-18.857 -49.633,-9.54 -16.983,9.316 -24.412,29.239 -18.538,46.936 1.334,4.02 -0.389,8.419 -4.113,10.462 l -40.314,22.115 c -4.261,2.338 -9.612,0.79 -11.95,-3.457 l -37.026,-67.25"
             style="fill:none;stroke:#060606;stroke-width:15;stroke-linecap:round;stroke-linejoin:round;stroke-miterlimit:10;stroke-dasharray:none;stroke-opacity:1"
             id="path4612" /></g><g
           id="g4614"
           transform="translate(452.9971,309.9707)"><path
             d="m 0,0 50.416,91.57 c 2.338,4.247 0.779,9.585 -3.482,11.923"
             style="fill:none;stroke:#060606;stroke-width:15;stroke-linecap:round;stroke-linejoin:round;stroke-miterlimit:10;stroke-dasharray:none;stroke-opacity:1"
             id="path4616" /></g><g
           id="g4618"
           transform="translate(269.6475,339.3613)"><path
             d="M 0,0 15.58,28.298 142.676,-41.425 1.436,-297.96 19.87,-308.072 c 4.262,-2.338 9.611,-0.79 11.95,3.457 L 183.35,-29.391 12.094,64.556"
             style="fill:none;stroke:#060606;stroke-width:15;stroke-linecap:round;stroke-linejoin:round;stroke-miterlimit:10;stroke-dasharray:none;stroke-opacity:1"
             id="path4620" /></g><g
           id="g4622"
           transform="translate(333.9844,420.8965)"><path
             d="M 0,0 97.227,-53.336"
             style="fill:none;stroke:#060606;stroke-width:15;stroke-linecap:round;stroke-linejoin:round;stroke-miterlimit:10;stroke-dasharray:none;stroke-opacity:1"
             id="path4624" /></g><g
           id="g4626"
           transform="translate(241.3281,188.1875)"><path
             d="M 0,0 12.706,-4.567 34.21,11.707 32.042,-15.227 51.762,-30.609 26.905,-38.803 17.589,-64.584 4.395,-42.713 -8.053,-42.982"
             style="fill:none;stroke:#060606;stroke-width:15;stroke-linecap:round;stroke-linejoin:round;stroke-miterlimit:10;stroke-dasharray:none;stroke-opacity:1"
             id="path4628" /></g><g
           id="g4630"
           transform="translate(269.0234,244.7041)"><path
             d="M 0,0 37.913,68.86"
             style="fill:none;stroke:#060606;stroke-width:15;stroke-linecap:round;stroke-linejoin:round;stroke-miterlimit:10;stroke-dasharray:none;stroke-opacity:1"
             id="path4632" /></g><g
           id="g4634"
           transform="translate(293.0254,231.5381)"><path
             d="M 0,0 37.912,68.86"
             style="fill:none;stroke:#060606;stroke-width:15;stroke-linecap:round;stroke-linejoin:round;stroke-miterlimit:10;stroke-dasharray:none;stroke-opacity:1"
             id="path4636" /></g><g
           id="g4638"
           transform="translate(317.0264,218.3711)"><path
             d="M 0,0 37.912,68.86"
             style="fill:none;stroke:#060606;stroke-width:15;stroke-linecap:round;stroke-linejoin:round;stroke-miterlimit:10;stroke-dasharray:none;stroke-opacity:1"
             id="path4640" /></g><g
           id="g4642"
           transform="translate(89.2588,326.0957)"><path
             d="m 0,0 -53.899,-287.723 24.535,-4.618 c 4.176,-0.786 8.303,1.517 9.827,5.468 6.709,17.393 25.111,28.061 44.154,24.477 19.044,-3.585 32.332,-20.219 32.289,-38.868 -0.01,-4.235 3.003,-7.882 7.179,-8.668 l 24.535,-4.619 53.9,287.723 z"
             style="fill:none;stroke:#060606;stroke-width:15;stroke-linecap:round;stroke-linejoin:round;stroke-miterlimit:10;stroke-dasharray:none;stroke-opacity:1"
             id="path4644" /></g><g
           id="g4646"
           transform="translate(147.3711,453.7217)"><path
             d="m 0,0 c 0.01,4.235 -3.003,7.883 -7.179,8.669 l -45.207,8.51 c -4.778,0.899 -9.376,-2.233 -10.268,-6.996 l -19.24,-102.704 201.167,-37.868 19.241,102.703 c 0.892,4.764 -2.259,9.354 -7.037,10.254 L 86.27,-8.922 C 82.095,-8.137 77.967,-10.439 76.443,-14.39 69.734,-31.782 51.332,-42.451 32.288,-38.866 13.244,-35.282 -0.043,-18.647 0,0 Z"
             style="fill:none;stroke:#060606;stroke-width:15;stroke-linecap:round;stroke-linejoin:round;stroke-miterlimit:10;stroke-dasharray:none;stroke-opacity:1"
             id="path4648" /></g><g
           id="g4650"
           transform="translate(47.6377,265.9678)"><path
             d="m 0,0 -39.986,-213.45 c -0.893,-4.763 2.257,-9.354 7.037,-10.253 l 20.671,-3.892 53.899,287.723 142.52,-26.828 -53.9,-287.723 20.671,-3.89 c 4.779,-0.9 9.376,2.232 10.269,6.995 L 219.007,57.365 17.84,95.233 7.2,38.438"
             style="fill:none;stroke:#060606;stroke-width:15;stroke-linecap:round;stroke-linejoin:round;stroke-miterlimit:10;stroke-dasharray:none;stroke-opacity:1"
             id="path4652" /></g><g
           id="g4654"
           transform="translate(118.9131,391.8418)"><path
             d="M 0,0 109.025,-20.522"
             style="fill:none;stroke:#060606;stroke-width:15;stroke-linecap:round;stroke-linejoin:round;stroke-miterlimit:10;stroke-dasharray:none;stroke-opacity:1"
             id="path4656" /></g><g
           id="g4658"
           transform="translate(132.6221,163.6299)"><path
             d="m 0,0 6.288,-26.261 23.517,-8.432 -21.09,-15.568 -0.864,-27.404 -19.324,16.64 -24.049,-8.504 9.147,25.85 -14,22.15 24.977,-0.663 z"
             style="fill:none;stroke:#060606;stroke-width:15;stroke-linecap:round;stroke-linejoin:round;stroke-miterlimit:10;stroke-dasharray:none;stroke-opacity:1"
             id="path4660" /></g><g
           id="g4662"
           transform="translate(112.3301,204.1777)"><path
             d="M 0,0 14.468,77.231"
             style="fill:none;stroke:#060606;stroke-width:15;stroke-linecap:round;stroke-linejoin:round;stroke-miterlimit:10;stroke-dasharray:none;stroke-opacity:1"
             id="path4664" /></g><g
           id="g4666"
           transform="translate(139.2432,199.1113)"><path
             d="M 0,0 14.469,77.231"
             style="fill:none;stroke:#060606;stroke-width:15;stroke-linecap:round;stroke-linejoin:round;stroke-miterlimit:10;stroke-dasharray:none;stroke-opacity:1"
             id="path4668" /></g><g
           id="g4670"
           transform="translate(166.1572,194.0449)"><path
             d="M 0,0 14.468,77.231"
             style="fill:none;stroke:#060606;stroke-width:15;stroke-linecap:round;stroke-linejoin:round;stroke-miterlimit:10;stroke-dasharray:none;stroke-opacity:1"
             id="path4672" /></g></g></g></g></svg>
