<svg id="twitter-2" xmlns="http://www.w3.org/2000/svg" width="42.118" height="34.23" viewBox="0 0 42.118 34.23">
  <path id="twitter-2-2" data-name="twitter-2" d="M13.246,34.729c15.894,0,24.586-13.168,24.586-24.586q0-.561-.024-1.117a17.582,17.582,0,0,0,4.31-4.475,17.237,17.237,0,0,1-4.962,1.361,8.672,8.672,0,0,0,3.8-4.779,17.336,17.336,0,0,1-5.487,2.1,8.649,8.649,0,0,0-14.725,7.88A24.535,24.535,0,0,1,2.931,2.082,8.649,8.649,0,0,0,5.606,13.618a8.576,8.576,0,0,1-3.914-1.081c0,.036,0,.072,0,.11a8.643,8.643,0,0,0,6.933,8.471,8.63,8.63,0,0,1-3.9.148,8.651,8.651,0,0,0,8.072,6,17.336,17.336,0,0,1-10.732,3.7A17.618,17.618,0,0,1,0,30.848,24.462,24.462,0,0,0,13.246,34.73" transform="translate(0 -0.5)" fill="#fff"/>
</svg>
