<svg xmlns="http://www.w3.org/2000/svg" width="34.081" height="34.23" viewBox="0 0 34.081 34.23">
  <g id="whatsapp" transform="translate(0)">
    <path id="Path_4325" data-name="Path 4325" d="M.729,34.23a.728.728,0,0,1-.7-.921l2.225-8.126a16.973,16.973,0,1,1,14.858,8.765H17.1A17.007,17.007,0,0,1,9.248,32.02L.913,34.206A.733.733,0,0,1,.729,34.23Zm0,0" transform="translate(0)" fill="#e5e5e5"/>
    <path id="Path_4326" data-name="Path 4326" d="M10.895,43.667l2.3-8.415a16.245,16.245,0,1,1,14.076,8.134h-.007a16.231,16.231,0,0,1-7.762-1.977Zm9.01-5.2.493.292a13.483,13.483,0,0,0,6.872,1.882h.005a13.5,13.5,0,1,0-11.437-6.326l.321.511-1.364,4.981Zm0,0" transform="translate(-10.166 -10.166)" fill="#fff"/>
    <path id="Path_4327" data-name="Path 4327" d="M19.344,51.021,21.568,42.9a15.682,15.682,0,1,1,13.589,7.852H35.15a15.679,15.679,0,0,1-7.493-1.908Zm0,0" transform="translate(-18.05 -18.087)" fill="#191919"/>
    <g id="Group_10743" data-name="Group 10743" transform="translate(0.729 0.728)">
      <path id="Path_4328" data-name="Path 4328" d="M10.895,43.667l2.3-8.415a16.245,16.245,0,1,1,14.076,8.134h-.007a16.231,16.231,0,0,1-7.762-1.977Zm9.01-5.2.493.292a13.483,13.483,0,0,0,6.872,1.882h.005a13.5,13.5,0,1,0-11.437-6.326l.321.511-1.364,4.981Zm0,0" transform="translate(-10.895 -10.895)" fill="#fff"/>
      <path id="Path_4329" data-name="Path 4329" d="M136.64,142.324c-.3-.676-.624-.689-.914-.7-.237-.01-.507-.01-.778-.01a1.492,1.492,0,0,0-1.082.508,4.55,4.55,0,0,0-1.421,3.385,7.9,7.9,0,0,0,1.658,4.2c.2.271,2.808,4.5,6.933,6.127,3.429,1.352,4.126,1.083,4.87,1.016a4.1,4.1,0,0,0,2.739-1.93,3.389,3.389,0,0,0,.237-1.93c-.1-.169-.372-.271-.778-.473s-2.4-1.185-2.773-1.32-.643-.2-.913.2-1.048,1.32-1.285,1.59-.474.305-.88.1a11.1,11.1,0,0,1-3.264-2.015,12.23,12.23,0,0,1-2.258-2.811c-.237-.406,0-.606.178-.828a12.239,12.239,0,0,0,1.014-1.388.748.748,0,0,0-.034-.711C137.789,145.134,137,143.127,136.64,142.324Zm0,0" transform="translate(-124.319 -132.874)" fill="#fff" fill-rule="evenodd"/>
    </g>
  </g>
</svg>
